<?xml version="1.0" encoding="utf-8"?>
<!-- Generator: Adobe Illustrator 17.1.0, SVG Export Plug-In . SVG Version: 6.00 Build 0)  -->
<!DOCTYPE svg PUBLIC "-//W3C//DTD SVG 1.1//EN" "http://www.w3.org/Graphics/SVG/1.1/DTD/svg11.dtd">
<svg version="1.1" id="television" xmlns="http://www.w3.org/2000/svg" xmlns:xlink="http://www.w3.org/1999/xlink" x="0px" y="0px"
	 viewBox="0 0 917.121 1010.0047" enable-background="new 0 0 917.121 1010.0047" xml:space="preserve">
<g id="television-television">
	<path fill-rule="evenodd" clip-rule="evenodd" fill="#B3B3B3" d="M618.9824,7.3206c-9.8008-9.7608-25.5821-9.7608-35.3633,0
		L458.5605,217.0383L333.4614,7.3206c-9.7505-9.7608-25.5728-9.7608-35.292,0c-9.771,9.7397-9.771,25.562,0,35.3022
		l141.2602,236.9243c5.2403,5.2193,12.2266,7.4385,19.1309,7.0069c6.8633,0.4316,13.8701-1.7876,19.1104-7.0069L618.9824,42.6228
		C628.7021,32.8826,628.7021,17.0603,618.9824,7.3206"/>
	<path fill="#BA594C" d="M281.0419,707.5515c-11.6611,0-21.1855,9.5352-21.1855,21.1641V836.698
		c0,11.6719-5.9385,28.625-13.2329,37.6875l-87.7217,110.8789c5.6919,6.5957,0.3901,9.7403,12.0103,9.7403h588.664
		c0.6562,0.6582,4.8487,0.1035,12.7598-9.5547l-72.8438-110.0586c-6.4941-9.6367-11.8769-27.0215-11.8769-38.6934V728.7156
		c0-11.6289-9.5352-21.1641-21.207-21.1641H281.0419z"/>
	<path fill="#ED7161" d="M772.3769,1005.2586v-19.8301h-22.8906H158.7578v20.2402c0,0.0625,0,0.1231,0,0.1856v0.2461h0.0825
		c0.2773,2.076,3.0718,3.9043,7.459,3.9043h598.6811C767.9589,1010.0047,772.7675,1008.0125,772.3769,1005.2586z"/>
	<path fill="#ED7161" d="M917.121,837.3972c0,64.1524-52.0292,116.1602-116.1406,116.1602H116.1503
		C51.998,953.5574,0,901.5496,0,837.3972V272.6428c0-64.1523,51.998-116.1196,116.1503-116.1196h684.8301
		c64.1114,0,116.1406,51.9673,116.1406,116.1196V837.3972z"/>
	<path fill="#BA594C" d="M852.8046,747.9089c0,55.1523-44.7343,99.9062-99.8867,99.9062H164.1621
		c-55.0904,0-99.8555-44.7539-99.8555-99.9062V320.2332c0-55.1114,44.7651-99.8452,99.8555-99.8452h588.7558
		c55.1524,0,99.8867,44.7338,99.8867,99.8452V747.9089z"/>
	<path fill="#4D4D4D" d="M833.1191,737.2644c0,52.3985-42.4941,94.873-94.8936,94.873H178.8852
		c-52.3989,0-94.8931-42.4745-94.8931-94.873V330.9387c0-52.3779,42.4942-94.8725,94.8931-94.8725h559.3403
		c52.3995,0,94.8936,42.4946,94.8936,94.8725V737.2644z"/>
	<g>
		<path fill="#4FBA6F" d="M394.7675,898.9402c0,6.1641-5.2295,11.1582-11.5996,11.1582h-29.0761
			c-6.3907,0-11.5997-4.9941-11.5997-11.1582l0,0c0-6.1641,5.209-11.1582,11.5997-11.1582h29.0761
			C389.538,887.782,394.7675,892.7761,394.7675,898.9402L394.7675,898.9402z"/>
		<path fill="#48A0DC" d="M574.5156,898.9402c0,6.1641-5.2598,11.1582-11.6719,11.1582H533.789
			c-6.4316,0-11.5898-4.9941-11.5898-11.1582l0,0c0-6.1641,5.1582-11.1582,11.5898-11.1582h29.0547
			C569.2558,887.782,574.5156,892.7761,574.5156,898.9402L574.5156,898.9402z"/>
		<g>
			<path fill="#BA594C" d="M481.6367,898.8992c0,14.5898-11.7539,26.3223-26.3125,26.3223
				c-14.5176,0-26.3125-11.7325-26.3125-26.3223c0-14.4863,11.7949-26.2813,26.3125-26.2813
				C469.8828,872.6179,481.6367,884.4129,481.6367,898.8992z"/>
		</g>
	</g>
</g>
</svg>
